<svg width="800" height="480" viewBox="0 0 800 480" fill="none" xmlns="http://www.w3.org/2000/svg">
  <defs>
    <linearGradient id="g1" x1="0" y1="0" x2="800" y2="480" gradientUnits="userSpaceOnUse">
      <stop stop-color="#6366F1"/>
      <stop offset="1" stop-color="#EC4899"/>
    </linearGradient>
    <linearGradient id="g2" x1="0" y1="0" x2="0" y2="1">
      <stop stop-color="#ffffff" stop-opacity="0.9"/>
      <stop offset="1" stop-color="#ffffff" stop-opacity="0.75"/>
    </linearGradient>
  </defs>
  <rect width="800" height="480" rx="24" fill="url(#g1)"/>
  <g filter="url(#f1)">
    <rect x="120" y="70" width="560" height="340" rx="16" fill="url(#g2)"/>
  </g>
  <rect x="160" y="110" width="200" height="24" rx="6" fill="#111827" opacity="0.9"/>
  <rect x="160" y="160" width="480" height="10" rx="5" fill="#6B7280"/>
  <rect x="160" y="185" width="420" height="10" rx="5" fill="#9CA3AF"/>
  <rect x="160" y="210" width="460" height="10" rx="5" fill="#D1D5DB"/>
  <rect x="160" y="260" width="200" height="18" rx="9" fill="#4F46E5" opacity="0.9"/>
  <rect x="380" y="260" width="160" height="18" rx="9" fill="#EF4444" opacity="0.9"/>
  <rect x="560" y="260" width="80" height="18" rx="9" fill="#10B981" opacity="0.9"/>
  <rect x="160" y="300" width="320" height="10" rx="5" fill="#6B7280"/>
  <rect x="160" y="325" width="360" height="10" rx="5" fill="#9CA3AF"/>
  <defs>
    <filter id="f1" x="100" y="50" width="600" height="380" filterUnits="userSpaceOnUse" color-interpolation-filters="sRGB">
      <feFlood flood-opacity="0" result="BackgroundImageFix"/>
      <feGaussianBlur in="BackgroundImageFix" stdDeviation="10"/>
      <feComposite in2="SourceAlpha" operator="in" result="effect1_backgroundBlur"/>
      <feBlend mode="normal" in="SourceGraphic" in2="effect1_backgroundBlur" result="shape"/>
    </filter>
  </defs>
</svg>


